<?xml version="1.0" standalone="no"?>
<!DOCTYPE svg PUBLIC "-//W3C//DTD SVG 20010904//EN"
 "http://www.w3.org/TR/2001/REC-SVG-20010904/DTD/svg10.dtd">
<svg version="1.0" xmlns="http://www.w3.org/2000/svg"
 width="512.000000pt" height="512.000000pt" viewBox="0 0 512.000000 512.000000"
 preserveAspectRatio="xMidYMid meet">
<metadata>
Created by potrace 1.14, written by Peter Selinger 2001-2017
</metadata>
<g transform="translate(0.000000,512.000000) scale(0.100000,-0.100000)"
fill="#000000" stroke="none">
<path d="M485 5109 c-16 -5 -39 -11 -51 -13 -74 -14 -222 -107 -282 -177 -47
-54 -102 -152 -124 -219 -27 -84 -32 -223 -12 -310 43 -193 193 -365 376 -431
l58 -22 0 -1377 0 -1378 -61 -22 c-185 -70 -342 -253 -378 -443 -10 -56 -8
-192 4 -250 40 -194 210 -377 405 -438 301 -94 635 69 741 363 l22 58 1377 0
1377 0 22 -59 c43 -120 151 -246 265 -312 124 -71 299 -95 438 -60 116 30 190
72 277 159 128 126 182 264 177 448 -8 245 -175 469 -408 544 l-38 12 0 1377
0 1378 59 22 c73 27 164 86 222 146 178 183 217 471 97 698 -43 80 -142 184
-219 230 -181 107 -408 112 -592 15 -121 -65 -232 -192 -278 -320 l-22 -58
-1377 0 -1377 0 -22 58 c-66 184 -238 333 -432 378 -44 10 -214 12 -244 3z
m251 -324 c105 -51 173 -175 161 -293 -26 -250 -330 -359 -507 -182 -61 61
-84 119 -85 210 0 62 5 85 28 132 73 148 251 207 403 133z m3906 7 c59 -26
124 -91 151 -151 13 -28 22 -71 23 -111 8 -225 -223 -375 -428 -276 -166 79
-218 292 -108 444 79 110 235 150 362 94z m-691 -459 c54 -168 216 -331 382
-383 l37 -12 0 -1378 0 -1378 -49 -17 c-156 -51 -304 -198 -362 -357 l-22 -58
-1378 0 -1377 0 -17 49 c-51 156 -198 304 -357 362 l-58 22 0 1377 0 1377 59
22 c69 25 163 85 216 139 52 52 111 145 136 214 l22 58 1378 0 1377 0 13 -37z
m-3221 -3463 c56 -28 118 -92 143 -149 30 -64 30 -178 0 -243 -45 -99 -164
-178 -267 -178 -113 0 -226 69 -273 168 -59 122 -27 276 73 359 91 74 227 93
324 43z m3925 -5 c70 -34 129 -105 151 -183 57 -196 -105 -398 -307 -379 -215
19 -339 239 -244 433 71 145 250 203 400 129z"/>
<path d="M2155 3870 c-323 -4 -468 -9 -486 -17 -42 -19 -98 -73 -122 -117 -21
-40 -22 -51 -22 -346 0 -338 0 -341 68 -410 62 -64 100 -73 302 -75 l180 0 2
-690 c1 -380 4 -713 6 -741 9 -94 61 -165 148 -203 43 -19 67 -21 325 -21 157
-1 293 3 312 9 71 21 135 81 167 156 5 11 10 337 11 725 1 388 3 719 3 735 l1
31 167 -1 c182 -1 233 9 290 55 33 27 71 80 81 114 4 11 7 156 7 321 0 288 -1
302 -22 340 -28 54 -68 89 -126 115 -47 21 -64 22 -440 23 -216 1 -599 0 -852
-3z m1103 -300 l42 0 0 -183 0 -182 -207 0 c-115 1 -221 -3 -238 -8 -39 -13
-92 -62 -100 -96 -4 -14 -8 -368 -8 -786 l0 -760 -61 -5 c-34 -3 -116 -4 -183
-2 l-123 3 -2 777 -3 777 -23 33 c-44 62 -63 66 -307 67 l-220 0 -3 182 -2
182 97 3 c74 2 1034 1 1341 -2z"/>
</g>
</svg>
